<svg xmlns="http://www.w3.org/2000/svg" width="918.6666666666663" height="741.6666666666667" style=""><rect id="backgroundrect" width="100%" height="100%" x="0" y="0" fill="none" stroke="none" class="" style=""/><defs><style>.cls-1{font-size:115px;font-family:SegoeUI-Semibold, Segoe UI;font-weight:600;letter-spacing:-0.03em;}.cls-1,.cls-14{fill:#2e76bc;}.cls-2{letter-spacing:-0.03em;}.cls-3{letter-spacing:-0.02em;}.cls-4{letter-spacing:-0.01em;}.cls-5{letter-spacing:-0.03em;}.cls-6{letter-spacing:-0.03em;}.cls-7{letter-spacing:-0.03em;}.cls-8{letter-spacing:-0.02em;}.cls-9{letter-spacing:-0.02em;}.cls-10{letter-spacing:-0.03em;}.cls-11{letter-spacing:-0.03em;}.cls-12{letter-spacing:-0.02em;}.cls-13{letter-spacing:-0.01em;}.cls-15{fill:#fff;}.cls-16{fill:#e32729;stroke:#fff;stroke-miterlimit:10;stroke-width:4px;}</style></defs><title>Sample-Seal_1</title><g class="currentLayer" style=""><title>Layer 1</title><g id="Layer_2" data-name="Layer 2" class=""><g id="Layer_1-2" data-name="Layer 1"><text class="cls-1" y="425.0233464241028" x="167.376673579216" id="svg_1">E<tspan class="cls-2" x="223.516673579216" y="425.0233464241028" id="svg_2">l</tspan><tspan class="cls-3" x="250.616673579216" y="425.0233464241028" id="svg_3">e</tspan><tspan class="cls-4" x="309.536673579216" y="425.0233464241028" id="svg_4">c</tspan><tspan class="cls-5" x="362.516673579216" y="425.0233464241028" id="svg_5">t</tspan><tspan class="cls-6" x="400.506673579216" y="425.0233464241028" id="svg_6">i</tspan><tspan class="cls-7" x="427.126673579216" y="425.0233464241028" id="svg_7">o</tspan><tspan class="cls-8" x="492.746673579216" y="425.0233464241028" id="svg_8">n</tspan><tspan class="cls-9" x="557.396673579216" y="425.0233464241028" id="svg_9">G</tspan><tspan class="cls-10" x="635.116673579216" y="425.0233464241028" id="svg_10">u</tspan><tspan class="cls-11" x="699.046673579216" y="425.0233464241028" id="svg_11">a</tspan><tspan class="cls-12" x="755.906673579216" y="425.0233464241028" id="svg_12">r</tspan><tspan class="cls-13" x="796.366673579216" y="425.0233464241028" id="svg_13">d</tspan></text><path class="cls-14" d="M123.66666686534882,319.33334398269653 c0,-15 -11.73,-27.19 -26.15,-27.19 S71.38666686534881,304.33334398269653 71.38666686534881,319.33334398269653 v2.31 a154.69,154.69 0 0 0 -18.1,4.22 V319.33334398269653 c0,-25.37 19.85,-46 44.24,-46 S141.7666668653488,293.9733439826965 141.7666668653488,319.33334398269653 v6.53 A154.53,154.53 0 0 0 123.66666686534882,321.6533439826965 z" id="svg_14"/><path class="cls-14" d="M160.38666686534881,342.69334398269655 v86.16 A147.36,147.36 0 0 1 34.666666865348816,428.8533439826965 V342.69334398269655 a147.36,147.36 0 0 1 125.72,0 z" id="svg_15"/><g id="_6Y9VCZ.tif" data-name="6Y9VCZ.tif"><path class="cls-15" d="M53.94666686534882,385.81334398269655 c0,25 19.64,45.57 44.12,45.28 c23.81,-0.2900000000000003 43.08,-20.46 43,-45.46 S121.52666686534882,340.43334398269656 97.36666686534882,340.45334398269654 C73.40666686534883,340.46334398269653 53.94666686534882,360.80334398269656 53.94666686534882,385.81334398269655 zm77.47,-0.06000000000000006 c0,19.43 -15.16,35.26 -33.8,35.27 s-34,-15.75 -34,-35.18 c0,-19.65 15.4,-35.54 34.29,-35.32 C116.37666686534881,350.7333439826965 131.41666686534882,366.39334398269654 131.41666686534882,385.75334398269655 z" id="svg_16"/></g><path class="cls-16" d="M98.49666686534881,417.0933439826965 s36,-69.27 69.88,-100.35 a2.89,2.89 0 0 0 -4.2,-1.62 c-3.18,1.4100000000000001 -36,13 -68.51,70.79 c0,0 -7.61,-17.88 -22.43,-16.53 c-6.79,0.6100000000000007 -9.88,7.75 -9.59,10.870000000000001 C63.666666865348816,380.25334398269655 73.73666686534881,376.76334398269654 98.49666686534881,417.0933439826965 z" id="svg_17"/></g></g></g></svg>